<?xml version="1.0" encoding="UTF-8"?>
<svg id="_2025_SNAP_Lockup_Hrz_Positive_RGB" data-name="2025_SNAP_Lockup_Hrz_Positive_RGB" xmlns="http://www.w3.org/2000/svg" viewBox="0 0 2214.650699999996505 713.301400000000285">
  <defs>
    <style>
      .cls-1 {
        fill: #fff;
      }
    </style>
  </defs>
  <g id="_2025_SNAP_Lockup_Hrz_Positive_RGB-2" data-name="2025_SNAP_Lockup_Hrz_Positive_RGB">
    <path id="_2025_SNAP_Lockup_Hrz_Positive_RGB_WhiteFill" data-name="2025_SNAP_Lockup_Hrz_Positive_RGB_WhiteFill" class="cls-1" d="M2013.22398879994762,444.42712297390608c-13.450063085439979,7.454034898468308-22.270002714170914,6.577021400584272-29.330055976561198,10.960990258021411-5.949946678800188,3.726986931678766-2.429929805679421,11.838003755905447-6.619990118138958,14.906971164953575-5.289912997541251,3.507016394663879-20.949935351640306-.218993975253397-41.01986648500133,6.357050863569384-16.540026572380157,5.480952892336063-27.119974637678752,21.044967018158786-57.110064295498887,21.044967018158786-29.999977345680236,0-40.139862266720229-15.564014125822723-57.119951983360806-21.044967018158786-20.069931133359205-6.576044838822781-35.729953487460079-2.630002896779843-41.019866484999511-6.357050863569384-4.190060312459536-2.84997343379473-.880004218279282-11.179984233274809-6.619990118140777-14.906971164953575-6.830072967299202-4.383968857437139-15.870105203268395-3.726986931678766-29.330055976559379-10.960990258021411-8.599969091710591-4.602962832690537-3.749997168210029-7.67199127684944-.880004218279282-8.987969287001761,48.739953428648732-23.455975939685231,56.460040372308868-59.626969133161765,56.899981446338643-62.257948591703098,1.099974755301446-3.2880224194123,0-7.015009351091066-2.650022412908584-9.207024297364114-3.530026631200599-3.068967409048128-18.959946620001574-12.494985681665639-23.369977469470541-15.563953090711948-7.059931192170552-4.8229944048162-10.150016749330462-9.865043819995662-7.939935410449834-15.783984662837611,1.539915829320307-3.727047966789542,5.510005604770413-6.138056888317806,9.699943847010218-5.700007902700236,1.320067362528789,0,2.650022412908584.218993975251578,3.96996770521946.438964512268285,7.720086943660135,1.753050434004763,15.220081280080194,5.480037365685348,19.62999005932943,6.576044838820962.440063144251326.218993975253397,1.099974755299627.218993975253397,1.540037899550953.218993975253397,2.430051875899153,0,3.089963486940178-1.096007473137433,3.089963486940178-3.726010369917276-1.099974755290532-13.373036776421941-1.099974755290532-26.964029931223195-.439941074029775-40.335968075662095.439941074029775-15.126026175315928,6.609980360068221-29.814003365016106,16.979967646419027-40.993987598289095,31.530005487149538-31.56796932567886,82.919981328719587-31.786963300928619,114.669957352889469-.439025547380879l.449950832100512.439025547380879c10.359977528280069,11.17998423327299,16.319933965150994,25.647990885958279,16.979967646420846,40.993987598289095.880004218279282,13.3719381444389.660033681258938,26.962931299240154-.439941074031594,40.335968075662095-.220092607238257,2.849973433792911.659911611041025,3.726010369917276,3.07995372887126,3.726010369917276.660033681269852,0,1.109984513370364,0,1.550047657619871-.218993975253397,4.409908779249236-1.096007473135614,11.909903115669294-4.8229944048162,19.619980301260512-6.576044838820962,1.329955050379795-.219970537016707,2.649900342688852-.438964512268285,3.749997168210029-.438964512268285,4.189938242239805-.43804898561757,7.939935410449834,1.972959935910694,9.709953605079136,5.700007902700236,2.199949510590159,6.137995853205211-.890013976350019,10.960990258021411-7.940057480669566,15.783984662837611-4.189938242239805,2.84899687203324-19.629867989109698,12.49498568166382-23.159894620301202,15.563953090711948-2.640012654848761,2.192014946273048-3.74999716820821,5.700007902700236-2.640012654848761,9.207024297364114.439941074029775,2.630979458541333,8.150018259619173,38.801972652017866,56.889971688269725,62.257948591703098,2.869992949930747,1.534971985405718,7.719964873440404,4.385006454311224-.880004218279282,8.987969287001761Z"/>
    <path id="_2025_SNAP_Lockup_Hrz_Positive_RGB_Black" data-name="2025_SNAP_Lockup_Hrz_Positive_RGB_Black" d="M2035.273898906887553,432.809150790124477c-1.979978973580728-5.041988380067778-5.949946678800188-9.426994834379002-11.019889139330189-11.61900978065205-.890013976350019-.437987950504976-1.77001819463112-.877013497884036-2.430051875890058-1.315001448389012-1.319945292319971-.657958487521682-2.869992949930747-1.315978010152321-4.410030849479881-2.192014946274867-13.669911552240592-6.795954340726894-25.359966201120187-16.879931100864269-34.399998437080285-29.155922807276511-2.209959268660896-3.288998981171972-4.189938242239805-6.79601537583585-5.959956436870925-10.304008332263038-.660033681269852-1.315001448389012-.660033681269852-2.850034468905505-.219970537020345-4.165035917294517.439941074031594-.876952462773261,1.109984513370364-1.533995423642409,1.989988731651465-1.972959935910694,2.420042117830235-1.754026995768072,5.069942460519087-3.288022419410481,6.82995089707947-4.603023867801312,3.090085557170823-1.972959935910694,5.739985899859676-3.726986931678766,7.280023799410628-4.8229944048162,5.290035067750068-3.507992956425369,9.700065917229949-8.110955789115906,13.009999941188653-13.591969716562744,3.749997168210029-7.015009351091066,4.190060312461355-15.345020150569326,1.329955050379795-22.798017452165368-4.189938242237986-10.523002307516435-14.559925528588792-17.537950623498546-26.029887570228311-17.098986111226623-2.420042117830235,0-5.070064530751552.218993975251578-7.489984578351141.876036936120727l-1.990110801869378.438964512268285c.220092607229162-7.452997301596042,0-14.906971164953575-.65991161105012-22.14097449129622-.880004218279282-18.853013106994695-8.379998554699341-37.047945656249794-21.170027958869468-50.858970383176711-6.17992697389127-6.794977778965404-13.449941015220247-12.713979656918127-21.609969032910158-17.317980086481839-30.660011026940992-16.659960563847562-67.930002413950206-16.659960563847562-98.579881612609825,0-8.160028017680816,4.604000429563712-15.44005181708053,10.302970735392591-21.609969032901063,17.317980086481839-12.350088330149447,14.030018702178495-19.850082666569506,32.005957276182016-20.730086884848788,50.858970383176711-.669921369111762,7.452997301596042-.890013976350019,14.906971164953575-.669921369111762,22.14097449129622l-1.979978973578909-.438964512268285c-2.430051875899153-.657042960869148-5.070064530740638-.876036936120727-7.499994336420059-.876036936120727-11.470084111859251-.438964512271923-21.83006164013932,6.356989828458609-26.019999882379125,17.098986111226623-2.869992949930747,7.452997301596042-2.430051875900972,15.783008101074302,1.319945292309058,22.798017452165368,3.089963486940178,5.481013927446838,7.499994336420059,10.304008332263038,13.009999941190472,13.591969716562744,1.550047657619871,1.096007473137433,4.190060312459536,2.630002896779843,7.280023799408809,4.8229944048162,1.760008436560383,1.096007473137433,4.189938242239805,2.630002896779843,6.619990118129863,4.384029892547915.880004218281101.657958487521682,1.540037899550953,1.315001448390831,2.199949510601073,2.191953911164092.660033681260757,1.315001448389012.440063144249507,2.850034468905505-.219970537020345,4.165035917294517-1.540037899549134,3.507992956427188-3.530026631189685,7.015009351091066-5.729976141788939,10.083976760137375-9.040032235960098,12.276968268175551-20.509994277610531,21.921980516044641-33.739964755810433,28.717995891880491-7.499994336420059,4.164974882185561-15.440051817089625,6.575983803712006-18.749985841050147,15.563953090713767-2.430051875900972,7.454034898466489-.440063144251326,15.783984662837611,5.510005604770413,21.045028053269561,2.429929805679421,2.411985483287935,5.079952218589824,4.38494541919863,7.939935410449834,6.137995853205211,6.180049044109182,3.288998981173791,12.790029404179222,5.919001877951814,19.62999005932943,7.891961813864327,1.320067362530608.439025547377241,2.869992949930747.877013497884036,3.969967705230374,1.754026995768072,2.210081338878808,1.972959935910694,1.980101043789546,5.041988380067778,5.070064530740638,9.425957237504917,1.549925587389225,2.192991508036357,3.530026631189685,4.385006454311224,5.739985899848762,5.919001877953633,6.60998036007004,3.726986931678766,14.109974696490099,5.481013927446838,21.609969032910158,5.041988380069597,8.160028017680816,0,16.09996342813065,1.096007473135614,23.819928301569234,3.507992956425369,4.190060312461355,1.754026995768072,8.37999855470116,3.726010369917276,12.120108035060184,6.356989828458609,30.439918419710011,20.826034078016164,70.579902756640877,20.826034078016164,101.009811418280151,0,3.749997168210029-2.41094788641567,7.720086943660135-4.602962832690537,11.91002518589994-6.356989828458609,7.719964873431309-2.411985483289754,15.879992891121219-3.507992956425369,23.810040613720048-3.507992956425369,7.499994336420059.439025547377241,14.999988672840118-1.315001448390831,21.619978790969981-5.041988380069597,2.64001265485058-1.972959935910694,5.069942460520906-4.383968857437139,6.60998036007004-7.234003326342645,2.209959268660896-3.726986931678766,2.209959268660896-6.356989828458609,4.189938242239805-8.110955789115906,1.109984513370364-.658019522632458,2.430051875900972-1.315001448390831,3.749997168210029-1.754026995768072,7.060053262390284-1.753965960659116,13.68004338053106-4.383968857438958,19.850082666571325-7.891961813864327,3.089963486938359-1.753050434006582,5.949946678800188-3.946041942042939,8.37987648447961-6.356989828458609,6.180049044100087-5.480037365685348,7.940057480660471-13.371999179549675,5.510005604770413-20.60600250589232ZM2013.22398879994762,444.42712297390608c-13.450063085439979,7.454034898468308-22.270002714170914,6.577021400584272-29.330055976561198,10.960990258021411-5.949946678800188,3.726986931678766-2.429929805679421,11.838003755905447-6.619990118138958,14.906971164953575-5.289912997541251,3.507016394663879-20.949935351640306-.218993975253397-41.01986648500133,6.357050863569384-16.540026572380157,5.480952892336063-27.119974637678752,21.044967018158786-57.110064295498887,21.044967018158786-29.999977345680236,0-40.139862266720229-15.564014125822723-57.119951983360806-21.044967018158786-20.069931133359205-6.576044838822781-35.729953487460079-2.630002896779843-41.019866484999511-6.357050863569384-4.190060312459536-2.84997343379473-.880004218279282-11.179984233274809-6.619990118140777-14.906971164953575-6.830072967299202-4.383968857437139-15.870105203268395-3.726986931678766-29.330055976559379-10.960990258021411-8.599969091710591-4.602962832690537-3.749997168210029-7.67199127684944-.880004218279282-8.987969287001761,48.739953428648732-23.455975939685231,56.460040372308868-59.626969133161765,56.899981446338643-62.257948591703098,1.099974755301446-3.2880224194123,0-7.015009351091066-2.650022412908584-9.207024297364114-3.530026631200599-3.068967409048128-18.959946620001574-12.494985681665639-23.369977469470541-15.563953090711948-7.059931192170552-4.8229944048162-10.150016749330462-9.865043819995662-7.939935410449834-15.783984662837611,1.539915829320307-3.727047966789542,5.510005604770413-6.138056888317806,9.699943847010218-5.700007902700236,1.320067362528789,0,2.650022412908584.218993975251578,3.96996770521946.438964512268285,7.720086943660135,1.753050434004763,15.220081280080194,5.480037365685348,19.62999005932943,6.576044838820962.440063144251326.218993975253397,1.099974755299627.218993975253397,1.540037899550953.218993975253397,2.430051875899153,0,3.089963486940178-1.096007473137433,3.089963486940178-3.726010369917276-1.099974755290532-13.373036776421941-1.099974755290532-26.964029931223195-.439941074029775-40.335968075662095.439941074029775-15.126026175315928,6.609980360068221-29.814003365016106,16.979967646419027-40.993987598289095,31.530005487149538-31.56796932567886,82.919981328719587-31.786963300928619,114.669957352889469-.439025547380879l.449950832100512.439025547380879c10.359977528280069,11.17998423327299,16.319933965150994,25.647990885958279,16.979967646420846,40.993987598289095.880004218279282,13.3719381444389.660033681258938,26.962931299240154-.439941074031594,40.335968075662095-.220092607238257,2.849973433792911.659911611041025,3.726010369917276,3.07995372887126,3.726010369917276.660033681269852,0,1.109984513370364,0,1.550047657619871-.218993975253397,4.409908779249236-1.096007473135614,11.909903115669294-4.8229944048162,19.619980301260512-6.576044838820962,1.329955050379795-.219970537016707,2.649900342688852-.438964512268285,3.749997168210029-.438964512268285,4.189938242239805-.43804898561757,7.939935410449834,1.972959935910694,9.709953605079136,5.700007902700236,2.199949510590159,6.137995853205211-.890013976350019,10.960990258021411-7.940057480669566,15.783984662837611-4.189938242239805,2.84899687203324-19.629867989109698,12.49498568166382-23.159894620301202,15.563953090711948-2.640012654848761,2.192014946273048-3.74999716820821,5.700007902700236-2.640012654848761,9.207024297364114.439941074029775,2.630979458541333,8.150018259619173,38.801972652017866,56.889971688269725,62.257948591703098,2.869992949930747,1.534971985405718,7.719964873440404,4.385006454311224-.880004218279282,8.987969287001761ZM343.812224545170466,431.201119777859276c0,74.273991763946469-27.75797464417974,103.774946048954007-86.024898417654185,103.774946048954007l.020996077894779-.020019516132379c-56.06599770111734,0-79.482972205411897-33.855931465119284-79.482972205411897-109.233926301632891,0-10.385978485208398,6.541987247352154-13.656972108885384,14.163990768980511-13.656972108885384h35.931003140328357c7.621942486516673,0,10.352958490610945,4.374996696244125,9.801994551199641,15.291980639842222-1.630003651924198,34.959995572797197,2.730954968983497,52.439962841641318,20.685958500200286,52.439962841641318,20.135971122550473,0,23.416974504294558-12.552969036316426,23.416974504294558-46.960963072830054,0-28.396951212440399-14.163990768980511-46.428981052678864-40.841949138884047-58.980912492123025-39.740997821824749-18.584031376522034-62.607984948470403-51.357016882078824-62.077956051844012-100.504990022149286.549987377647994-70.450935568875138,34.299961891530984-95.024891621356801,84.944943178488757-95.024891621356801,54.985920391733089,0,78.952943308784597,30.584937841444116,78.952943308784597,102.670881941276093,0,10.386039520316444-7.622003521626539,13.657033143992521-14.163990768979602,13.657033143992521h-35.931003140328357c-7.622003521626539,0-10.882987387237335-4.374996696242306-10.352958490610945-14.209034680276091,2.180967591333683-32.219946372400955-1.080016274274385-46.959925475957789-19.606003261035767-46.959925475957789-16.874010695179095,0-22.315962152124484,10.385978485208398-22.315962152124484,42.605985892718309,0,25.125957588763413,11.432974764887149,42.605924857609352,35.379978165807188,53.522969836315497,40.841949138884047,18.562974263518299,67.498911430894623,51.335959769075089,67.498911430894623,101.587874946603733ZM548.004086952315447,191.982306282070567v329.316767919726772c0,6.010981788964273-4.36101965601847,10.385978485208398-10.35301952572263,10.385978485208398h-42.471952790808245c-5.991999869704159,0-9.252983735311318-3.822995159960556-10.353996087482301-8.197991856204681l-40.841949138884956-145.277905430868486c-7.622003521628358-26.76096611972207-11.983023177645009-43.688931852282622-12.512991039162443-48.615930084810316-.549987377647994-4.374996696242306-1.080016274274385-4.90703975150609-2.731016004094272-4.90703975150609-1.650999729815339,0-2.180967591333683,1.636046127830923-1.630003651924198,5.459041287791479.550048412759679,7.645990319921111,1.630003651924198,30.583961279680807,1.630003651924198,48.063928548524927v143.089918801864769c0,6.010981788964273-4.360958620906786,10.385978485208398-10.352958490609126,10.385978485208398h-41.371978035512257c-5.991999869704159,0-10.353019525720811-4.374996696244125-10.353019525720811-10.385978485208398V191.982306282070567c0-6.010981788962454,4.361019656016651-10.385978485208398,10.353019525720811-10.385978485208398h42.471952790808245c5.991999869707797,0,9.252983735313137,3.822995159960556,10.353996087485029,8.1979918562065l40.841949138883137,145.277905430866667c7.622003521627448,26.76096611972207,11.983023177645009,43.688931852280803,12.512991039161534,48.615930084808497.55004841275877,4.374996696244125,1.080016274275295,4.90703975150609,2.731016004096091,4.90703975150609,1.650999729815339,0,2.18102862644264-1.636046127829104,1.63000365192147-5.45904128778966-.549987377648904-7.645990319919292-1.63000365192147-30.583961279680807-1.63000365192147-48.063928548524927v-143.089918801864769c0-6.010981788962454,4.361019656015742-10.385978485208398,10.353019525718992-10.385978485208398h41.371917000400572c5.991999869704159,0,10.35301952572263,4.374996696245944,10.35301952572263,10.385978485208398ZM702.055972573963118,191.430304745786998c-1.080016274275295-6.562983325247842-4.890987517533176-9.833976948924828-10.882987387237335-9.833976948924828h-51.175010183584163c-5.990962272830075,0-9.802971112962041,3.270993623676986-10.882987387238245,9.833976948924828l-60.956924183539741,310.221811636058192c-1.080016274276204,6.541987247352154-3.260983865610797,15.291980639840403-3.260983865610797,20.198959356235719,0,6.010981788964273,4.36199621778087,9.833976948924828,9.80297111296295,9.833976948924828h43.001981687435546c5.991999869704159,0,9.802971112962041-2.187986629003717,10.882987387236426-9.281975412641259l10.882987387238245-72.086920661593467h52.275961500643461l10.882987387237335,72.086920661593467c1.080016274275295,7.093988783637542,4.890987517534086,9.281975412641259,10.882987387237335,9.281975412641259h43.001981687435546l-.020019516132379-.020996077895688c5.44097489518208,0,9.80297111296295-3.822995159960556,9.80297111296295-9.833000387161519,0-4.906978716395315-2.160948075203123-13.636952592751186-3.260983865610797-20.198959356235719l-60.977920261436338-310.201792119925813ZM646.010970950741466,403.887175560092146l10.882987387237335-69.366952012442198c2.180052064682059-12.553030071423564,5.441035930291946-52.418966763747449,5.441035930291946-56.795001056863839,0-4.374996696242306,1.080016274275295-6.009944192090188,3.260983865611706-6.009944192090188,2.181028626444458,0,3.260983865610797,1.655943573741752,3.260983865610797,6.009944192090188,0,4.355038215222521,4.361019656015742,44.241970985440275,5.991999869705978,56.795001056863839l10.353019525718992,69.366952012442198h-39.191010444176754ZM881.707814449878242,181.59632779686217h-88.205927044100463c-5.991023307941759,0-10.35301952572172,4.374996696245944-10.35301952572172,10.385978485208398v329.316767919726772c0,6.010981788964273,4.361996217779961,10.385978485208398,10.35301952572172,10.385978485208398h47.913965282862591c5.991999869706888,0,10.352958490611854-4.374996696244125,10.352958490611854-10.385978485208398v-117.963900177990581h32.099035819174787c57.716936395826451,0,80.583923522471196-47.511988047350314,80.583923522471196-110.86893483258973s-21.765974774471943-110.869911394354858-82.743956071019966-110.869911394354858ZM867.5638431970292,354.167181367603916h-15.795032017776975v-123.422880430670375h13.614003391331607v-.02001951613147c24.496990778568943,0,30.488990648273102,17.479967268844121,30.488990648273102,61.720961692519268,0,44.241970985438456-6.520991169457375,61.721938254282577-28.307962021827734,61.721938254282577ZM1091.824660175776444,282.100219187032053c2.179991029570374-34.959934537688241-3.260007303849306-49.147912104963325-19.601974943770983-49.147912104963325-23.416974504294558,0-24.496990778566214,26.209941145199991-24.496990778566214,123.422880430669466,0,97.211962723707984,1.080016274271657,123.973905405191545,24.496990778566214,123.973905405191545,16.321948123791117,0,21.781965973341357-15.291980639840403,19.601974943770983-51.887961305357749-.549987377649813-10.385001923445088,2.179991029570374-16.375964196276982,9.809990150630256-16.375964196276982h37.029940298749352c7.070063020450107,0,13.609975074061367,3.822995159960556,13.609975074061367,13.104970572599996,0,83.555967176585909-33.199926101129677,109.765908321785901-80.03088438931718,109.765908321785901-68.049936405413973,0-94.727955810429194-51.335959769074179-94.727955810429194-178.58085879794271,0-127.245936625738977,26.67801940501522-178.049853339551191,94.727955810429194-178.049853339551191,46.810938772056943,0,80.03088438931718,25.125957588762503,80.03088438931718,107.045878637520218,0,9.834037984033785-7.069940950230375,13.105031607708952-13.609975074061367,13.105031607708952h-37.029940298749352c-7.629999121059882,0-10.359977528280069-6.010005227199144-9.809990150630256-16.376025231384119ZM1354.814451814776476,191.982306282070567v329.316767919726772c0,6.010981788964273-4.369991817209666,10.385978485208398-10.359977528280069,10.385978485208398h-47.909998000699488c-5.989985711070403,0-10.349967770209332-4.374996696244125-10.349967770209332-10.385978485208398v-146.360912425541756h-44.109952042170335v146.360912425541756c0,6.010981788964273-4.359982059140748,10.385978485208398-10.349967770211151,10.385978485208398h-47.909998000699488c-5.999995469139321,0-10.359977528280069-4.374996696244125-10.359977528280069-10.385978485208398V191.982306282070567c0-6.010981788962454,4.359982059140748-10.385978485208398,10.359977528280069-10.385978485208398h47.909998000699488c5.989985711070403,0,10.349967770211151,4.374996696245944,10.349967770211151,10.385978485208398v127.244899028866712h44.109952042170335v-127.244899028866712c0-6.010981788962454,4.359982059138929-10.385978485208398,10.349967770209332-10.385978485208398h47.909998000699488c5.989985711070403,0,10.359977528280069,4.374996696245944,10.359977528280069,10.385978485208398ZM1508.844364796766968,191.430304745786998c-1.080077309379703-6.562983325247842-4.890010955770776-9.833976948924828-10.879996666839361-9.833976948924828h-51.170005304551523c-5.999995469130226,0-9.809929115519481,3.270993623676986-10.890006424899184,9.833976948924828l-60.949905145880621,310.221811636058192c-1.079955239159972,6.541987247352154-3.260007303839302,15.291980639840403-3.260007303839302,20.198959356235719,0,6.010981788964273,4.359982059138929,9.833976948924828,9.800041427670294,9.833976948924828h42.999967528799971c5.989985711070403,0,9.799919357459657-2.187986629003717,10.879996666839361-9.281975412641259l10.889884354690366-72.086920661593467h52.269980059849331l10.87999666684118,72.086920661593467c1.080077309379703,7.093988783637542,4.900020713828781,9.281975412641259,10.890006424899184,9.281975412641259h42.999967528799971l-.02001951613056-.020996077895688c5.440059368531365,0,9.800041427670294-3.822995159960556,9.800041427670294-9.833000387161519,0-4.906978716395315-2.16003254854877-13.636952592751186-3.260007303839302-20.198959356235719l-60.979934420080099-310.201792119925813ZM1452.804368052586142,403.887175560092146l10.87999666684118-69.366952012442198c2.18005206467933-12.553030071423564,5.440059368520451-52.418966763747449,5.440059368520451-56.795001056863839,0-4.374996696242306,1.079955239169067-6.009944192090188,3.260007303848397-6.009944192090188,2.179929994461418,0,3.259885233630484,1.655943573741752,3.259885233630484,6.009944192090188,0,4.355038215222521,4.369991817209666,44.241970985440275,5.99999546914114,56.795001056863839l10.350089840429064,69.366952012442198h-39.190033882410717ZM1721.204189785916242,191.982306282070567v34.959995572799016c0,6.010005227199144-4.359982059138929,10.385001923445088-10.349967770209332,10.385001923445088v-.020019516134198h-42.999967528799971v283.991789939616865c0,6.010981788964273-4.369991817209666,10.385978485208398-10.359977528280069,10.385978485208398h-47.909998000699488c-5.989985711070403,0-10.349967770211151-4.374996696244125-10.349967770211151-10.385978485208398V237.307284262180474h-43.009977286868889c-5.989985711070403,0-10.349967770211151-4.374996696242306-10.349967770211151-10.385978485206579v-34.938999494903328c0-6.010981788962454,4.359982059140748-10.385978485208398,10.349967770211151-10.385978485208398h154.629888114859568c5.989985711070403,0,10.349967770209332,4.374996696245944,10.349967770209332,10.385978485208398Z"/>
  </g>
</svg>