<?xml version="1.0" encoding="utf-8"?>
<!-- Generator: Adobe Illustrator 12.0.0, SVG Export Plug-In . SVG Version: 6.00 Build 51448)  -->
<!DOCTYPE svg PUBLIC "-//W3C//DTD SVG 1.1//EN" "http://www.w3.org/Graphics/SVG/1.1/DTD/svg11.dtd" [
	<!ENTITY ns_svg "http://www.w3.org/2000/svg">
	<!ENTITY ns_xlink "http://www.w3.org/1999/xlink">
]>
<svg  version="1.1" id="Layer_1" xmlns="&ns_svg;" xmlns:xlink="&ns_xlink;" width="335.132" height="287.002"
	 viewBox="0 0 335.132 287.002" overflow="visible" enable-background="new 0 0 335.132 287.002" xml:space="preserve">
<g>
	<g>
		<path fill-rule="evenodd" clip-rule="evenodd" fill="#184897" d="M21.53,151.157c6.374,0,12.75,0.025,19.126-0.028
			c1.229-0.008,1.756,0.249,1.88,1.591c0.193,1.934,0.822,3.834,0.975,5.768c0.115,1.717,0.864,1.836,2.307,1.655
			c6.566-0.786,13.156-1.417,19.725-2.234c1.708-0.21,2.017,0.381,1.979,1.882c-0.056,2.101-0.646,4.104-0.897,6.164
			c-0.186,1.479,0.438,1.8,1.7,1.512c0.546-0.128,1.079-0.298,1.631-0.447c2.32-0.63,2.948-0.213,3.397,2.111
			c0.235,1.218-0.079,1.938-1.328,2.486c-10.915,4.708-21.751,9.609-32.46,14.772c-8.779,4.229-17.503,8.588-26.231,12.952
			c-1.074,0.532-1.508,0.459-1.989-0.726c-5.929-14.587-9.6-29.686-10.626-45.417c-0.104-1.528,0.068-2.143,1.885-2.096
			C8.912,151.237,15.222,151.157,21.53,151.157"/>
		<path fill-rule="evenodd" clip-rule="evenodd" fill="#184897" d="M126.831,1.183c1.106-0.22,1.916,0.18,2.087,2.234
			c0.541,6.401,1.314,12.788,2.121,19.157c0.183,1.484-0.428,1.83-1.629,2.048c-3.089,0.549-6.26,0.651-9.315,1.484
			c-1.795,0.492-2.765,1.348-2.286,3.324c0.398,1.631-0.358,2.372-1.931,2.752c-2.443,0.581-4.878,1.279-7.242,2.104
			c-1.318,0.453-2.082,0.317-2.563-1.079c-0.969-2.789-2.052-5.534-2.996-8.331c-0.411-1.21-1-1.659-2.193-1.011
			c-0.103,0.05-0.244,0.045-0.365,0.086c-3.942,1.283-4.027,1.444-2.487,5.311c2.41,6.08,4.76,12.188,7.268,18.223
			c0.682,1.629,0.215,2.476-1.165,3.15c-0.448,0.221-0.913,0.423-1.389,0.59c-1.62,0.563-2.111,1.562-1.43,3.205
			c0.699,1.709,0.268,2.916-1.535,3.791c-2.481,1.202-4.864,2.641-7.253,4.042c-0.769,0.448-1.194,0.509-1.741-0.355
			c-7.999-12.531-16.008-25.045-24.083-37.524c-0.766-1.192-0.014-1.549,0.675-2.063c4.677-3.488,9.854-6.068,15.164-8.399
			c12.539-5.504,25.409-9.973,38.968-12.195C123.066,1.467,124.65,1.402,126.831,1.183"/>
		<path fill-rule="evenodd" clip-rule="evenodd" fill="#184897" d="M144.768,267.364c0-8.301,0.028-14.484-0.028-20.663
			c-0.018-1.453,0.505-2.132,1.97-1.979c1.896,0.192,2.354-0.757,2.252-2.502c-0.244-3.997-0.355-3.574,3.269-4.094
			c1.306-0.184,2.656-0.172,3.937-0.471c1.88-0.448,2.685,0.36,2.956,2.077c0.073,0.499,0.191,0.99,0.28,1.489
			c0.407,2.272,0.65,2.527,2.83,1.884c1.418-0.424,1.931,0,2.164,1.33c0.141,0.867,0.602,1.7,0.639,2.559
			c0.09,2.214,1.52,2.62,3.304,2.639c1.758,0.022,3.526,0.074,5.294,0.04c1.414-0.02,2.171,0.595,2.582,1.959
			c0.735,2.395,0.938,2.448,3.376,1.737c1.99-0.598,3.987-1.174,5.97-1.787c0.81-0.253,1.28-0.258,1.679,0.756
			c2.971,7.549,5.999,15.083,9.09,22.578c0.512,1.227-0.121,1.567-0.924,2.016c-4.205,2.366-8.826,3.659-13.447,4.86
			c-10.259,2.676-20.635,4.756-31.261,5.099c-5.997,0.189-4.93,0.743-5.277-4.646C145.067,276.588,144.917,270.915,144.768,267.364"
			/>
		<path fill-rule="evenodd" clip-rule="evenodd" fill="#184897" d="M170.877,2.902c7.412,1.401,14.568,3.351,21.569,5.875
			c10.65,3.849,20.658,8.964,30.133,15.153c1,0.644,1.168,1.102,0.442,2.126c-3.824,5.552-7.603,11.138-11.318,16.769
			c-0.65,0.96-1.211,0.982-2.142,0.574c-2.741-1.172-5.073-3.044-7.694-4.423c-2.433-1.277-2.433-1.287-3.713,1.114
			c-1.921,3.616-3.858,7.22-5.736,10.854c-0.432,0.86-0.794,1.019-1.699,0.576c-5.894-2.877-11.921-5.424-18.22-7.276
			c-0.728-0.208-1.062-0.59-0.828-1.362c0.035-0.121,0.054-0.248,0.09-0.366c1.468-5.301,1.412-4.291-3.705-5.722
			c-0.304-0.081-0.617-0.097-0.934-0.162c-3.146-0.637-3.162-0.643-2.656-3.926c1.473-9.595,3.538-19.071,5.387-28.588
			C169.944,3.608,169.75,2.521,170.877,2.902"/>
		<path fill-rule="evenodd" clip-rule="evenodd" fill="#184897" d="M231.052,257.086c-0.336,0.26-0.635,0.493-0.924,0.72
			c-8.158,6.436-16.947,11.8-26.535,15.849c-1.2,0.515-1.671,0.252-2.213-0.94c-8.288-18.561-16.619-37.104-25.009-55.614
			c-0.524-1.151-0.209-1.759,0.629-2.329c1.253-0.839,1.595-1.755,0.642-3.119c-0.764-1.057-0.448-1.939,0.772-2.595
			c1.783-0.939,3.537-1.946,5.219-3.064c1.007-0.659,1.545-0.492,2.255,0.434c1.632,2.105,1.694,2.093,3.937,0.579
			c1.393-0.931,2.307-0.841,3.428,0.632c12.195,16.012,24.454,31.963,36.704,47.93C230.302,256.016,230.618,256.487,231.052,257.086
			"/>
		<path fill-rule="evenodd" clip-rule="evenodd" fill="#184897" d="M16.762,146.228c-5.101,0-10.221-0.008-15.325,0.011
			c-0.892,0-1.498,0.054-1.432-1.242c0.738-15.659,2.431-31.161,7.556-46.098c0.581-1.694,1.129-2.002,2.875-1.378
			c9.3,3.314,18.648,6.5,28.012,9.642c1.306,0.445,1.648,0.975,1.238,2.281c-0.874,2.756-1.608,5.562-2.458,8.332
			c-0.537,1.738-0.238,2.941,1.786,3.234c1.709,0.254,2.305,0.964,1.95,2.887c-0.816,4.456-1.374,8.969-1.89,13.469
			c-0.178,1.499-1.153,1.499-2.123,1.576c-2.684,0.207-2.782,0.28-2.689,2.98c0.005,0.064,0.009,0.124,0.009,0.18
			c0.106,3.245,0.106,3.371-3.134,3.451c-4.788,0.126-9.582,0.036-14.366,0.036C16.762,145.799,16.762,146.012,16.762,146.228"/>
		<path fill-rule="evenodd" clip-rule="evenodd" fill="#184897" d="M140.366,252.417c-0.315,10.719-0.315,21.438-0.231,32.159
			c0.019,1.515-0.507,1.937-1.846,2.034c-3.931,0.298-7.81-0.162-11.688-0.614c-6.129-0.716-12.211-1.719-18.156-3.5
			c-1.76-0.532-2.535-1.279-2.002-3.322c2.042-7.914,4.155-15.811,6.752-23.563c0.491-1.494,1.16-1.71,2.559-1.348
			c4.432,1.183,4.512,1.157,5.522-3.311c1.176-5.211,2.204-10.464,3.344-15.699c0.483-2.183,0.943-2.559,3.114-1.844
			c1.938,0.639,2.566,0.013,2.804-1.818c0.507-3.989,1.199-7.969,1.641-11.974c0.196-1.719,1.011-2.255,2.566-2.102
			c0.064,0,0.118,0,0.183,0c5.924,0.414,5.924,0.414,5.924,6.359v28.551C140.687,252.426,140.531,252.417,140.366,252.417"/>
		<path fill-rule="evenodd" clip-rule="evenodd" fill="#184897" d="M79.481,103.465c-0.429,0.858-0.797,1.661-1.219,2.435
			c-1.371,2.481-2.708,5.014-3.506,7.722c-0.556,1.872-1.19,2.098-2.973,1.422c-17.523-6.642-35.092-13.188-52.648-19.763
			c-2.643-0.99-5.294-2.003-7.963-2.942c-1.008-0.354-1.187-0.758-0.742-1.776c3.297-7.498,6.744-14.902,11.098-21.867
			c0.712-1.142,1.148-1.202,2.256-0.507C41.91,79.589,60.085,90.94,78.221,102.31C78.691,102.606,79.47,102.714,79.481,103.465"/>
		<path fill-rule="evenodd" clip-rule="evenodd" fill="#184897" d="M58.83,208.443c-3.432,2.592-3.824,5.741-2.872,9.338
			c1.407,5.309,2.148,10.647,0.031,15.957c-0.321,0.815,0.203,0.996,0.613,1.317c1.438,1.134,2.855,2.291,4.333,3.369
			c0.939,0.669,1.169,1.128,0.278,2.136c-3.214,3.639-6.352,7.341-9.428,11.099c-0.805,0.984-1.243,0.945-2.174,0.162
			c-12.085-10.379-21.971-22.556-29.902-36.336c-1.76-3.046-3.307-6.228-5.036-9.292c-0.578-1.024-0.381-1.448,0.6-2.008
			c4.078-2.26,8.422-3.959,12.576-6.048c0.994-0.496,1.568-0.004,1.75,0.723c0.839,3.266,2.987,3.487,5.909,3.201
			c3.336-0.333,6.402,1.081,9.285,2.737c1.903,1.105,3.79,2.255,5.567,3.556c1.261,0.913,2.479,1.066,3.895,0.589
			C55.613,208.484,56.994,208.049,58.83,208.443"/>
		<path fill-rule="evenodd" clip-rule="evenodd" fill="#184897" d="M92.039,231.013c-0.248,0.425-0.495,0.871-0.744,1.301
			c-3.723,6.294-7.38,12.618-11.201,18.843c-0.913,1.49-0.529,2.193,0.721,2.997c2.691,1.763,3.245,1.632,4.638-1.249
			c0.159-0.352,0.296-0.704,0.476-1.03c1.24-2.323,1.713-2.477,3.999-1.266c5.229,2.79,10.802,4.775,16.325,6.889
			c1.196,0.458,1.46,0.869,1.037,2.152c-2.132,6.45-3.914,13-6.281,19.374c-0.304,0.841-0.538,1.357-1.675,0.931
			c-13.226-5.017-26.009-10.874-37.813-18.744c-1.996-1.324-3.872-2.815-5.587-4.497c-0.736-0.726-0.779-1.249-0.129-2.062
			c8.057-10.19,16.099-20.395,24.101-30.628c0.715-0.906,1.145-0.966,2.088-0.293c2.957,2.146,6.02,4.158,9.022,6.248
			C91.398,230.25,91.94,230.405,92.039,231.013"/>
		<path fill-rule="evenodd" clip-rule="evenodd" fill="#184897" d="M61.505,26.162c0.494,0.062,0.653,0.441,0.862,0.745
			c5.88,8.423,11.739,16.863,17.645,25.27c0.543,0.768,0.338,1.202-0.179,1.787c-2.732,3.047-5.481,6.088-8.148,9.2
			c-0.706,0.827-1.193,0.598-1.878,0.117c-1.157-0.805-1.955-1.959-2.863-3.006c-0.889-1.033-1.664-1.132-2.851-0.28
			c-4.671,3.355-9.009,7.109-13.187,11.041c-1.154,1.085-1.975,1.029-3.054,0.171c-0.989-0.779-2.01-1.525-3.019-2.282
			c-0.797-0.604-1.466-0.638-2.303,0.105c-1.25,1.099-2.353,3.025-3.899,2.941c-1.412-0.077-2.753-1.615-4.113-2.524
			c-2.719-1.828-5.408-3.696-8.16-5.479c-0.956-0.632-1.225-1.066-0.46-2.147c9.572-13.576,20.94-25.361,34.552-34.93
			C60.808,26.632,61.181,26.388,61.505,26.162"/>
		<path fill-rule="evenodd" clip-rule="evenodd" fill="#184897" d="M145.182,0.007c6.183,0.079,12.304,0.983,18.439,1.663
			c1.115,0.125,1.287,0.637,1.133,1.612c-1.693,11.283-3.381,22.568-5.026,33.857c-0.173,1.169-0.669,1.551-1.798,1.625
			c-1.944,0.129-3.885,0.405-5.824,0.646c-1.165,0.14-1.819,0.761-2.118,1.996c-0.9,3.616-1.662,7.251-2.183,10.928
			c-0.184,1.26-0.738,1.851-1.841,2.319c-2.333,0.99-4.812,1.443-7.224,2.177c-0.913,0.277-1.167,0.014-1.231-0.93
			c-0.458-7.55-0.969-15.092-1.474-22.646c-0.671-10.191-1.316-20.385-2.018-30.568c-0.099-1.268,0.032-1.874,1.539-2.048
			C138.751,0.278,141.958-0.053,145.182,0.007"/>
		<path fill-rule="evenodd" clip-rule="evenodd" fill="#184897" d="M240.988,83.27c-0.648-0.057-0.859-0.668-1.162-1.089
			c-1.021-1.438-2.021-2.627-3.883-1.059c-0.624,0.51-1.321,0.292-1.8-0.379c-1.808-2.439-3.598-4.877-5.443-7.277
			c-0.586-0.771-0.283-1.328,0.279-1.781c1.62-1.282,1.349-2.585-0.03-3.731c-1.586-1.325-1.324-2.441,0.046-3.681
			c2.13-1.95,4.2-3.988,6.388-5.889c1.086-0.936,0.993-1.571,0.062-2.573c-4.777-5.141-10.062-9.725-15.613-13.984
			c-1.066-0.812-1.312-1.281-0.416-2.449c2.651-3.443,5.191-6.982,7.687-10.543c0.686-0.969,1.121-0.998,2.064-0.298
			c14.145,10.558,25.951,23.283,35.383,38.222c0.419,0.661,1.098,1.199-0.1,1.929c-7.614,4.69-15.189,9.443-22.767,14.178
			C241.466,83.002,241.24,83.121,240.988,83.27"/>
		<path fill-rule="evenodd" clip-rule="evenodd" fill="#184897" d="M231.168,217.195c1.131,0.471,1.972,1.146,2.771,1.854
			c3.666,3.191,3.685,3.217,7.188,0.162c0.816-0.723,1.441-0.923,2.444-0.226c4.631,3.165,8.933,6.773,13.435,10.106
			c0.954,0.706,0.521,1.229,0.106,1.862c-2.438,3.625-5.331,6.87-8.296,10.049c-3.88,4.146-7.839,8.188-12.386,11.641
			c-1.096,0.822-1.756,0.869-2.723-0.329c-5.314-6.56-10.73-13.042-16.155-19.506c-0.795-0.949-0.918-1.447,0.125-2.363
			c4.378-3.811,8.427-7.966,12.351-12.241C230.378,217.818,230.667,217.275,231.168,217.195"/>
	</g>
	<g>
		<g>
			<g>
				<path fill="#A5A4A7" d="M169.197,128.213v-23.085h3.048v20.341h11.37v2.744H169.197z"/>
				<path fill="#A5A4A7" d="M185.589,116.959c0-3.821,1.039-6.825,3.089-8.989c2.059-2.165,4.71-3.25,7.967-3.25
					c2.136,0,4.051,0.511,5.761,1.527c1.718,1.021,3.019,2.438,3.911,4.258c0.902,1.818,1.35,3.883,1.35,6.187
					c0,2.337-0.474,4.431-1.414,6.279c-0.949,1.849-2.289,3.245-4.015,4.193c-1.734,0.949-3.606,1.425-5.6,1.425
					c-2.18,0-4.119-0.53-5.826-1.574c-1.723-1.048-3.012-2.478-3.888-4.293C186.032,120.903,185.589,118.988,185.589,116.959z
					 M188.745,117.018c0,2.774,0.756,4.962,2.242,6.56c1.497,1.599,3.373,2.396,5.623,2.396c2.296,0,4.199-0.805,5.684-2.42
					c1.482-1.612,2.228-3.906,2.228-6.868c0-1.876-0.321-3.515-0.958-4.914c-0.628-1.398-1.562-2.481-2.785-3.253
					c-1.222-0.768-2.589-1.154-4.118-1.154c-2.155,0-4.017,0.741-5.583,2.227C189.519,111.073,188.745,113.547,188.745,117.018z"/>
				<path fill="#A5A4A7" d="M210.718,128.213v-23.085h8.647c1.759,0,3.173,0.239,4.232,0.697c1.062,0.471,1.893,1.188,2.503,2.155
					c0.593,0.969,0.904,1.982,0.904,3.036c0,0.985-0.268,1.911-0.817,2.78c-0.535,0.866-1.348,1.571-2.434,2.104
					c1.407,0.411,2.493,1.108,3.251,2.098c0.75,0.99,1.126,2.158,1.126,3.502c0,1.088-0.227,2.096-0.685,3.022
					c-0.454,0.938-1.015,1.65-1.688,2.157c-0.675,0.507-1.516,0.887-2.528,1.145c-1.013,0.262-2.247,0.391-3.715,0.391H210.718z
					 M213.779,114.796h4.962c1.345,0,2.319-0.084,2.904-0.265c0.772-0.233,1.352-0.609,1.74-1.144
					c0.393-0.527,0.596-1.193,0.596-1.998c0-0.763-0.185-1.429-0.551-2.01c-0.367-0.579-0.892-0.978-1.573-1.188
					c-0.673-0.21-1.835-0.321-3.491-0.321h-4.587V114.796z M213.779,125.47h5.742c0.994,0,1.682-0.036,2.077-0.11
					c0.711-0.124,1.29-0.334,1.769-0.63c0.471-0.29,0.859-0.72,1.162-1.28c0.299-0.561,0.455-1.211,0.455-1.949
					c0-0.856-0.221-1.604-0.682-2.239c-0.458-0.635-1.072-1.08-1.854-1.337c-0.781-0.259-1.902-0.385-3.363-0.385h-5.307V125.47z"/>
				<path fill="#A5A4A7" d="M229.103,128.213l8.855-23.085h3.313l9.434,23.085h-3.474l-2.672-6.996h-9.696l-2.522,6.996H229.103z
					 M235.73,118.733h7.87l-2.42-6.403c-0.745-1.938-1.288-3.543-1.653-4.811c-0.299,1.504-0.714,2.988-1.243,4.451L235.73,118.733z
					"/>
				<path fill="#A5A4A7" d="M252.248,128.213v-23.085h3.055v20.341h11.359v2.744H252.248z"/>
				<path fill="#A5A4A7" d="M143.974,152.214l2.894-0.25c0.135,1.155,0.451,2.099,0.944,2.839c0.497,0.744,1.271,1.34,2.31,1.795
					c1.049,0.458,2.221,0.684,3.528,0.684c1.141,0,2.172-0.167,3.059-0.519c0.885-0.344,1.545-0.82,1.986-1.419
					c0.428-0.606,0.645-1.263,0.645-1.978c0-0.717-0.208-1.35-0.628-1.884c-0.411-0.542-1.095-0.99-2.049-1.355
					c-0.614-0.244-1.979-0.615-4.086-1.121c-2.115-0.512-3.595-0.99-4.442-1.443c-1.104-0.583-1.927-1.298-2.469-2.157
					c-0.538-0.856-0.81-1.815-0.81-2.877c0-1.165,0.33-2.258,0.989-3.273c0.661-1.015,1.62-1.784,2.885-2.309
					c1.265-0.527,2.678-0.787,4.227-0.787c1.709,0,3.216,0.273,4.511,0.823c1.304,0.553,2.306,1.365,3.006,2.435
					c0.701,1.07,1.085,2.281,1.131,3.636l-2.925,0.221c-0.158-1.442-0.682-2.533-1.595-3.271c-0.896-0.738-2.229-1.108-3.994-1.108
					c-1.844,0-3.175,0.342-4.016,1.016s-1.263,1.484-1.263,2.44c0,0.828,0.298,1.507,0.896,2.044c0.583,0.532,2.105,1.08,4.579,1.64
					c2.463,0.556,4.169,1.049,5.075,1.468c1.353,0.615,2.338,1.401,2.971,2.351c0.65,0.946,0.959,2.034,0.959,3.268
					c0,1.232-0.345,2.384-1.045,3.464c-0.704,1.09-1.71,1.931-3.028,2.535c-1.311,0.602-2.784,0.905-4.435,0.905
					c-2.076,0-3.82-0.311-5.234-0.913c-1.405-0.607-2.51-1.527-3.313-2.749C144.436,155.137,144.015,153.756,143.974,152.214z"/>
				<path fill="#A5A4A7" d="M165.871,159.642v-23.075h3.058v9.445h11.964v-9.445h3.057v23.075h-3.057V148.75h-11.964v10.892H165.871
					z"/>
				<path fill="#A5A4A7" d="M185.78,159.642l8.86-23.075h3.313l9.429,23.075h-3.472l-2.679-6.986h-9.691l-2.522,6.986H185.78z
					 M192.406,150.167h7.866l-2.41-6.405c-0.75-1.938-1.301-3.536-1.653-4.803c-0.298,1.501-0.72,2.982-1.245,4.445L192.406,150.167
					z"/>
				<path fill="#A5A4A7" d="M209.049,159.642v-23.075h8.702c1.532,0,2.694,0.072,3.51,0.221c1.128,0.188,2.082,0.548,2.841,1.075
					c0.77,0.532,1.383,1.275,1.854,2.227c0.466,0.957,0.703,2.008,0.703,3.149c0,1.959-0.626,3.623-1.878,4.983
					c-1.247,1.36-3.5,2.039-6.757,2.039h-5.914v9.38H209.049z M212.11,147.521h5.954c1.965,0,3.366-0.36,4.2-1.093
					c0.83-0.738,1.241-1.764,1.241-3.093c0-0.965-0.247-1.782-0.735-2.469c-0.489-0.684-1.125-1.137-1.921-1.355
					c-0.521-0.139-1.465-0.208-2.854-0.208h-5.886V147.521z"/>
				<path fill="#A5A4A7" d="M229.875,159.642v-23.075h16.689v2.736h-13.634v7.025h12.749v2.738h-12.749v7.84h14.172v2.736H229.875z"
					/>
				<path fill="#A5A4A7" d="M272.116,152.214l2.895-0.25c0.131,1.155,0.458,2.099,0.946,2.839c0.495,0.744,1.265,1.34,2.31,1.795
					c1.044,0.458,2.225,0.684,3.518,0.684c1.162,0,2.188-0.167,3.064-0.519c0.89-0.344,1.551-0.82,1.98-1.419
					c0.435-0.606,0.656-1.263,0.656-1.978c0-0.717-0.214-1.35-0.626-1.884c-0.411-0.542-1.093-0.99-2.056-1.355
					c-0.61-0.244-1.98-0.615-4.086-1.121c-2.111-0.512-3.584-0.99-4.439-1.443c-1.1-0.583-1.925-1.298-2.463-2.157
					c-0.547-0.856-0.811-1.815-0.811-2.877c0-1.165,0.323-2.258,0.98-3.273c0.661-1.015,1.623-1.784,2.885-2.309
					c1.275-0.527,2.683-0.787,4.23-0.787c1.71,0,3.211,0.273,4.507,0.823c1.312,0.553,2.314,1.365,3.012,2.435
					c0.701,1.07,1.08,2.281,1.125,3.636l-2.928,0.221c-0.149-1.442-0.679-2.533-1.585-3.271c-0.896-0.738-2.23-1.108-4.003-1.108
					c-1.836,0-3.173,0.342-4.011,1.016c-0.837,0.674-1.261,1.484-1.261,2.44c0,0.828,0.299,1.507,0.896,2.044
					c0.577,0.532,2.109,1.08,4.572,1.64c2.475,0.556,4.164,1.049,5.088,1.468c1.342,0.615,2.326,1.401,2.969,2.351
					c0.644,0.946,0.959,2.034,0.959,3.268c0,1.232-0.35,2.384-1.05,3.464c-0.701,1.09-1.714,1.931-3.023,2.535
					c-1.315,0.602-2.79,0.905-4.435,0.905c-2.083,0-3.834-0.311-5.235-0.913c-1.408-0.607-2.513-1.527-3.317-2.749
					C272.581,155.137,272.16,153.756,272.116,152.214z"/>
				<path fill="#A5A4A7" d="M161.445,182.979l3.063,0.769c-0.648,2.51-1.795,4.417-3.464,5.736
					c-1.663,1.318-3.689,1.975-6.098,1.975c-2.487,0-4.509-0.507-6.066-1.517c-1.561-1.008-2.749-2.479-3.562-4.406
					c-0.814-1.91-1.222-3.977-1.222-6.183c0-2.395,0.461-4.498,1.379-6.287c0.918-1.795,2.229-3.15,3.915-4.078
					c1.694-0.931,3.563-1.391,5.602-1.391c2.303,0,4.239,0.586,5.815,1.758c1.566,1.177,2.669,2.833,3.284,4.962l-3.023,0.71
					c-0.541-1.677-1.308-2.903-2.32-3.672c-1.018-0.764-2.294-1.152-3.833-1.152c-1.767,0-3.255,0.422-4.438,1.275
					c-1.186,0.859-2.026,1.998-2.504,3.425c-0.487,1.438-0.726,2.917-0.726,4.436c0,1.966,0.285,3.672,0.858,5.139
					c0.571,1.469,1.46,2.559,2.669,3.282c1.211,0.725,2.518,1.084,3.924,1.084c1.702,0,3.156-0.489,4.338-1.48
					C160.227,186.377,161.026,184.918,161.445,182.979z"/>
				<path fill="#A5A4A7" d="M166.614,179.834c0-3.825,1.025-6.821,3.085-8.997c2.055-2.165,4.711-3.239,7.961-3.239
					c2.129,0,4.06,0.506,5.765,1.521c1.713,1.014,3.012,2.438,3.914,4.25c0.895,1.821,1.34,3.895,1.34,6.196
					c0,2.338-0.467,4.425-1.413,6.28c-0.938,1.844-2.277,3.239-4.013,4.193c-1.73,0.952-3.603,1.419-5.61,1.419
					c-2.165,0-4.108-0.524-5.821-1.576c-1.71-1.044-3.007-2.473-3.889-4.294C167.05,183.783,166.614,181.858,166.614,179.834z
					 M169.757,179.888c0,2.78,0.747,4.963,2.242,6.561c1.497,1.604,3.382,2.398,5.634,2.398c2.297,0,4.191-0.804,5.673-2.417
					c1.483-1.615,2.224-3.905,2.224-6.873c0-1.875-0.311-3.512-0.943-4.914c-0.638-1.391-1.566-2.484-2.79-3.25
					c-1.228-0.766-2.594-1.152-4.119-1.152c-2.159,0-4.021,0.738-5.576,2.225C170.54,173.949,169.757,176.42,169.757,179.888z"/>
				<path fill="#A5A4A7" d="M191.737,191.082v-23.078h4.593l5.493,16.34c0.501,1.525,0.87,2.665,1.106,3.418
					c0.264-0.841,0.675-2.07,1.235-3.703l5.572-16.056h4.101v23.078h-2.957v-19.303l-6.744,19.303h-2.749l-6.698-19.648v19.648
					H191.737z"/>
				<path fill="#A5A4A7" d="M217.856,191.082v-23.078h4.593l5.487,16.34c0.507,1.525,0.877,2.665,1.108,3.418
					c0.271-0.841,0.679-2.07,1.239-3.703l5.568-16.056h4.104v23.078h-2.962v-19.303l-6.739,19.303h-2.749l-6.692-19.648v19.648
					H217.856z"/>
				<path fill="#A5A4A7" d="M259.236,168.003h3.056v13.328c0,2.316-0.263,4.157-0.788,5.518c-0.526,1.359-1.463,2.477-2.838,3.321
					c-1.373,0.865-3.154,1.289-5.393,1.289c-2.157,0-3.924-0.37-5.297-1.115c-1.365-0.75-2.353-1.818-2.938-3.228
					c-0.585-1.414-0.884-3.339-0.884-5.784v-13.328h3.053v13.304c0,1.993,0.186,3.466,0.556,4.415
					c0.381,0.951,1.019,1.688,1.921,2.199c0.904,0.514,2.021,0.769,3.321,0.769c2.242,0,3.845-0.513,4.802-1.531
					c0.953-1.01,1.429-2.964,1.429-5.852V168.003z"/>
				<path fill="#A5A4A7" d="M266.608,191.082v-23.078h3.129l12.143,18.124v-18.124h2.924v23.078h-3.133l-12.136-18.123v18.123
					H266.608z"/>
				<path fill="#A5A4A7" d="M289.715,191.082v-23.078h3.052v23.078H289.715z"/>
				<path fill="#A5A4A7" d="M303.277,191.082v-20.339h-7.61v-2.739h18.295v2.739h-7.627v20.339H303.277z"/>
				<path fill="#A5A4A7" d="M322.852,191.082v-9.774l-8.909-13.304h3.663l4.563,6.994c0.846,1.296,1.641,2.607,2.373,3.924
					c0.72-1.239,1.574-2.617,2.55-4.132l4.484-6.786h3.557l-9.225,13.304v9.774H322.852z"/>
			</g>
			<path fill="#A5A4A7" d="M160.632,106.08c2.261,1.167,3.649,3.212,4.163,6.138h-3.113c-0.376-1.633-1.14-2.831-2.312-3.574
				c-1.158-0.749-2.631-1.113-4.407-1.113c-2.094,0-3.873,0.763-5.303,2.332c-1.441,1.543-2.154,3.857-2.154,6.932
				c0,2.656,0.581,4.819,1.784,6.493c1.181,1.674,3.114,2.507,5.79,2.507c2.058,0,3.762-0.592,5.112-1.759
				c1.33-1.178,2.034-3.073,2.063-5.688h-7.264v-2.513h10.175v11.964h-2.012l-0.761-2.877c-1.043,1.129-1.97,1.906-2.78,2.343
				c-1.36,0.748-3.071,1.131-5.17,1.131c-2.715,0-5.032-0.858-6.976-2.579c-2.12-2.147-3.186-5.104-3.186-8.853
				c0-3.749,1.035-6.726,3.113-8.938c1.978-2.11,4.517-3.163,7.644-3.163C157.198,104.863,159.053,105.272,160.632,106.08"/>
			<path fill="#A5A4A7" d="M250.667,136.606h11.002c1.807,0,3.299,0.254,4.479,0.766c2.238,0.97,3.341,2.772,3.341,5.403
				c0,1.365-0.288,2.489-0.89,3.357c-0.596,0.864-1.442,1.566-2.515,2.099c0.951,0.362,1.664,0.841,2.144,1.424
				c0.479,0.597,0.735,1.557,0.791,2.888l0.122,3.064c0.026,0.87,0.099,1.52,0.227,1.941c0.199,0.728,0.542,1.193,1.047,1.392v0.524
				h-4.009c-0.118-0.195-0.208-0.447-0.271-0.768c-0.059-0.307-0.118-0.906-0.159-1.795l-0.211-3.811
				c-0.076-1.502-0.637-2.495-1.71-3.011c-0.606-0.275-1.545-0.425-2.856-0.425h-7.264v9.81h-3.268V136.606z M261.311,147.084
				c1.491,0,2.68-0.296,3.556-0.877c0.865-0.583,1.293-1.627,1.293-3.145c0-1.625-0.602-2.738-1.835-3.327
				c-0.65-0.308-1.504-0.465-2.597-0.465h-7.794v7.814H261.311z"/>
		</g>
	</g>
</g>
</svg>
