<svg width="147" height="25" viewBox="0 0 147 25" fill="none" xmlns="http://www.w3.org/2000/svg">
<g clip-path="url(#clip0_18_1635)">
<path d="M43.2026 21.3008V2.25635H52.6828C56.2738 2.25635 59.189 4.89354 59.189 8.62234C59.189 12.3511 56.2713 15.0725 52.6828 15.0725H47.8037V21.2982H43.2026V21.3008ZM47.8037 11.1473H51.6881C53.4275 11.1473 54.4655 9.90013 54.4655 8.62234C54.4655 7.27569 53.4428 6.18153 51.6881 6.18153H47.8037V11.1448V11.1473Z" fill="#100F11"/>
<path d="M66.1313 21.3005H61.7139V1.55469H66.1313V21.3005Z" fill="#100F11"/>
<path d="M69.118 17.4853C69.118 14.8073 71.7552 13.1928 74.8107 13.1928C75.7773 13.1928 76.6904 13.3203 77.504 13.5422V13.277C77.504 12.2262 76.5782 11.4534 74.979 11.4534C73.6196 11.4534 72.4541 12.1548 71.7399 12.9531L69.2991 10.3312C70.3219 9.19622 72.426 7.55371 75.3565 7.55371C79.4526 7.55371 81.9189 9.71397 81.9189 13.305V21.2982H77.7259V19.9235C77.0398 20.8494 75.734 21.5788 74.1348 21.5788C71.2885 21.5788 69.1155 20.0358 69.1155 17.4827L69.118 17.4853ZM75.1066 18.5641C76.4532 18.5641 77.504 17.6511 77.504 16.2228C77.0271 16.0111 76.2568 15.8734 75.5962 15.8734C74.2215 15.8734 73.3518 16.3503 73.3518 17.22C73.3518 18.0183 74.0813 18.5667 75.104 18.5667L75.1066 18.5641Z" fill="#100F11"/>
<path d="M85.2446 21.3007V7.8367H89.2973L89.4376 9.25222C90.3915 8.04584 92.0187 7.55615 93.6025 7.55615C96.1403 7.55615 98.5811 9.33639 98.5811 12.55V21.3007H94.1637V13.8125C94.1637 12.3128 92.9726 11.5961 91.9065 11.5961C90.8404 11.5961 89.6621 12.3128 89.6621 13.8125V21.3007H85.2446Z" fill="#100F11"/>
<path d="M115.577 7.83651H117.722V3.51855H121.999V7.83906H126.08V11.4429H122.14V15.7889C122.14 17.2478 122.966 17.6967 124.132 17.6967C124.777 17.6967 125.631 17.5003 126.305 17.2325L126.613 20.8235C125.744 21.2724 124.3 21.581 123.038 21.581C119.951 21.581 117.722 20.0941 117.722 16.5056V11.4429H115.577V7.83906V7.83651Z" fill="#100F11"/>
<path d="M130.99 1.27441C132.421 1.27441 133.431 2.25635 133.431 3.69992C133.431 5.14349 132.421 6.11267 130.99 6.11267C129.559 6.11267 128.577 5.13074 128.577 3.69992C128.577 2.2691 129.559 1.27441 130.99 1.27441ZM133.275 7.8368V21.3008H128.858V7.8368H133.275Z" fill="#100F11"/>
<path d="M137.16 21.3007V7.8367H141.325L141.465 9.67305C142.097 8.3417 143.429 7.55615 144.985 7.55615C145.518 7.55615 146.063 7.65562 146.624 7.8367L146.359 11.693C145.798 11.4966 145.224 11.3972 144.663 11.3972C142.995 11.3972 141.577 12.3102 141.577 14.8199V21.2981H137.16V21.3007Z" fill="#100F11"/>
<path d="M108.23 17.8523C106.842 17.8523 105.439 17.1637 105.256 15.7074H114.343C114.427 15.1616 114.471 14.6285 114.471 14.1363C114.471 9.63468 111.048 7.55859 107.74 7.55859C103.687 7.55859 100.938 10.4763 100.938 14.5699C100.938 18.6634 103.896 21.5811 108.173 21.5811C110.908 21.5811 113.027 20.2778 114.05 18.6506L110.303 17.0999C109.699 17.5514 108.99 17.8523 108.23 17.8523ZM107.865 11.0374C109.28 11.0374 110.346 12.0602 110.39 13.1135H105.258C105.411 12.0066 106.324 11.0374 107.867 11.0374H107.865Z" fill="#100F11"/>
<path d="M6.37359 9.27504C6.37359 9.27504 6.37359 9.29545 6.37359 9.30565C6.37869 9.34646 6.3889 9.38726 6.3991 9.42807C6.40165 9.44337 6.4042 9.45868 6.4093 9.47398C6.4195 9.50969 6.43225 9.54794 6.44756 9.58365C6.45521 9.6015 6.46031 9.62191 6.46796 9.63976C6.48326 9.67547 6.50112 9.70862 6.51897 9.74433C6.52917 9.76474 6.53682 9.78514 6.54958 9.80299C6.56743 9.83615 6.59038 9.87185 6.61334 9.90501C6.62609 9.92542 6.63629 9.94327 6.64904 9.96367C6.67455 9.99938 6.7026 10.0351 6.73066 10.0682C6.74341 10.0861 6.75616 10.1039 6.77147 10.1193C6.80462 10.1575 6.84033 10.1958 6.87604 10.234C6.88879 10.2468 6.89899 10.2595 6.91174 10.2723C6.9551 10.3156 7.00101 10.359 7.04947 10.4024C7.05712 10.41 7.06222 10.4151 7.06987 10.4228C7.52386 10.8181 8.17933 11.1751 8.98783 11.4736C10.7681 12.129 12.1759 13.5369 12.8289 15.3146C13.4257 16.9341 14.2546 17.939 15.1753 17.939C16.096 17.939 16.9198 16.9341 17.5166 15.3146C18.1721 13.5343 19.58 12.1265 21.3576 11.4736C22.0667 11.2109 22.6584 10.9048 23.0971 10.5681C23.0971 10.5681 23.0971 10.5681 23.0996 10.5681C23.1608 10.5222 23.2195 10.4738 23.2756 10.4253C23.2858 10.4177 23.2935 10.4075 23.3037 10.3998C23.3496 10.359 23.3929 10.3182 23.4363 10.2774C23.4516 10.2621 23.4643 10.2468 23.4771 10.2315C23.5103 10.1958 23.546 10.1601 23.5766 10.1244C23.5919 10.1065 23.6046 10.0861 23.6199 10.0682C23.6454 10.0351 23.6735 10.0019 23.6964 9.96622C23.7117 9.94582 23.7219 9.92542 23.7347 9.90501C23.7551 9.87185 23.7781 9.84125 23.7959 9.80809C23.8087 9.78769 23.8163 9.76474 23.8291 9.74433C23.8444 9.71117 23.8622 9.67802 23.8775 9.64486C23.8852 9.62446 23.8928 9.60405 23.8979 9.58365C23.9107 9.54794 23.9234 9.51224 23.9336 9.47653C23.9387 9.45868 23.9413 9.44337 23.9438 9.42552C23.954 9.38471 23.9617 9.34646 23.9693 9.30565C23.9693 9.29545 23.9693 9.28269 23.9719 9.27249C23.977 9.23168 23.9821 9.18833 23.9821 9.14752C23.9821 9.14752 23.9821 9.13732 23.9821 9.13222C23.9821 8.21404 22.9772 7.38514 21.3576 6.78833C19.5774 6.13285 18.1695 4.72499 17.5141 2.94475C16.9173 1.3252 16.0884 0.320312 15.1702 0.320312C14.252 0.320312 13.4231 1.3252 12.8289 2.94475C12.1734 4.72499 10.7655 6.13285 8.98528 6.78833C7.36573 7.38514 6.36084 8.21404 6.36084 9.13222C6.36084 9.13732 6.36084 9.14242 6.36084 9.14752C6.36084 9.19088 6.36594 9.23168 6.37104 9.27504H6.37359Z" fill="#100F11"/>
<path d="M28.2287 6.11241C27.058 6.11241 26.1067 7.06119 26.1067 8.23441V9.14493C26.099 10.2161 25.566 12.1826 22.0948 13.4603C20.891 13.9067 19.9498 14.8478 19.5086 16.0491C18.2206 19.5381 16.2389 20.061 15.1753 20.061C14.1118 20.061 12.125 19.5381 10.837 16.0465C10.3958 14.8478 9.45463 13.9067 8.25335 13.4629C4.7796 12.1826 4.244 10.2161 4.2389 9.14238V8.23186C4.2389 7.06119 3.29012 6.10986 2.1169 6.10986C0.943677 6.10986 0 7.06374 0 8.23441V9.14493C0 17.5258 6.79703 24.3177 15.1753 24.3177C23.5537 24.3177 30.3481 17.5258 30.3481 9.14493V8.23441C30.3481 7.06374 29.3994 6.11241 28.2261 6.11241H28.2287Z" fill="#100F11"/>
</g>
<defs>
<clipPath id="clip0_18_1635">
<rect width="146.624" height="24" fill="white" transform="translate(0 0.320312)"/>
</clipPath>
</defs>
</svg>
